<svg xmlns="http://www.w3.org/2000/svg" viewBox="0 0 231.54 183.66"><defs><style>.cls-1,.cls-3{fill:#fff;}.cls-2,.cls-4,.cls-5{fill:none;}.cls-2,.cls-3{stroke:#fff;}.cls-2,.cls-3,.cls-5{stroke-linecap:round;stroke-linejoin:round;stroke-width:2px;}.cls-4,.cls-5,.cls-7{stroke:#1a1a1a;}.cls-4,.cls-7{stroke-miterlimit:10;}.cls-6{fill:#1a1a1a;}</style></defs><g id="Layer_2" data-name="Layer 2"><polygon class="cls-1" points="185.27 15.04 186.22 13.62 185.59 12.03 187.23 12.49 188.54 11.4 188.61 13.11 190.05 14.02 188.45 14.61 188.03 16.26 186.97 14.93 185.27 15.04"/><path class="cls-2" d="M871.5,171.5a8.5,8.5,0,0,0,0-8L861,151.21a1.92,1.92,0,1,1,2.38-3l20.1,9.27a10.3,10.3,0,0,1,4,2,10.43,10.43,0,0,1,3,4L912,214H853Z" transform="translate(-689.23 -146.73)"/><path class="cls-1" d="M920.76,252.21a2.48,2.48,0,0,1-1.17,1.47l-.18.08-.08,0-.14.06-.6.26c-.41.17-.81.33-1.22.48-.81.31-1.63.58-2.46.82a34.91,34.91,0,0,1-33.56-7.66h1.3a37.93,37.93,0,0,1-8.6,5.84,37.33,37.33,0,0,1-9.95,3.31,38.88,38.88,0,0,1-20.87-2h0l-.2-.08a1.94,1.94,0,0,1-1-2.53,1.91,1.91,0,0,1,.57-.76q2-1.62,4.07-3.14c1.37-1,2.76-2,4.19-2.92l-.5,1h0v-.14a1.11,1.11,0,0,1,.49-.85,105.51,105.51,0,0,1,14.94-8,25.08,25.08,0,0,1,8.2-2.32,8.17,8.17,0,0,1,2.19.2c.36.09.71.24,1,.36s.63.29,1,.41a7.91,7.91,0,0,0,3.93.52,7.61,7.61,0,0,0,1.92-.53c.31-.14.58-.29.92-.45a6.21,6.21,0,0,1,1.07-.38,11.11,11.11,0,0,1,4.34.05,39.52,39.52,0,0,1,8.06,2.68c2.61,1.1,5.1,2.43,7.6,3.74s4.85,2.89,7.31,4.31a1,1,0,0,1,.51.82V247h0l-.52-1c1.25.88,2.58,1.83,3.85,2.89S919.63,251.12,920.76,252.21Zm-3.52-.42c-1-.56-1.92-1.08-2.8-1.67a27.19,27.19,0,0,1-2.58-2.07l-.15-.13a1.09,1.09,0,0,1-.37-.88h0l.52,1c-2.23-1.63-4.49-3.24-6.76-4.85a74.73,74.73,0,0,0-7.22-4.13,34.77,34.77,0,0,0-7.74-2.89,9.47,9.47,0,0,0-4-.15,6.1,6.1,0,0,0-.91.31c-.29.13-.63.33-1,.46a7.85,7.85,0,0,1-2.12.58,8.87,8.87,0,0,1-4.3-.58c-.33-.13-.67-.29-1-.43a7.74,7.74,0,0,0-.93-.3,7.26,7.26,0,0,0-2-.13,21.42,21.42,0,0,0-7.78,2.49,75,75,0,0,0-7.24,4.13,52.94,52.94,0,0,0-6.66,4.91l.49-1h0a1.09,1.09,0,0,1-.37.88l-.13.11c-1.24,1.07-2.44,2.18-3.58,3.35s-2.22,2.38-3.24,3.65l-.67-3.37h0a35.56,35.56,0,0,0,18.83,2.79,34.85,34.85,0,0,0,9.35-2.58,36.38,36.38,0,0,0,8.37-5.07h0a1,1,0,0,1,1.3,0h0a32.57,32.57,0,0,0,17.26,7.48,32,32,0,0,0,9.42-.33,31.49,31.49,0,0,0,4.56-1.18c.74-.25,1.47-.52,2.19-.83.36-.15.72-.3,1.07-.47l.53-.25.13-.07.06,0s.1,0,0,0A1.32,1.32,0,0,0,917.24,251.79Z" transform="translate(-689.23 -146.73)"/><path class="cls-1" d="M913.06,230.73a17,17,0,0,1-2.2,7,17.53,17.53,0,0,1-4.75,5.5l0,0a1,1,0,0,1-1.07.05c-1.81-1.12-3.62-2.25-5.5-3.25a59.2,59.2,0,0,0-5.72-2.79,19.06,19.06,0,0,0-6.12-1.57,5.59,5.59,0,0,0-3,.65,8,8,0,0,1-6.31.25,11.51,11.51,0,0,0-3-1,13.53,13.53,0,0,0-6.13,1.46,58.45,58.45,0,0,0-5.62,3l-5.5,3.22h0a1,1,0,0,1-1.16-.09,19.73,19.73,0,0,1-6.56-10,13.75,13.75,0,0,1-.23-6.19,14.74,14.74,0,0,1,2.48-5.67,1.11,1.11,0,0,1,.92-.47l56.1.11a1,1,0,0,1,.84.43,15.18,15.18,0,0,1,2.17,4.4A13.16,13.16,0,0,1,913.06,230.73Zm-2-.18a11.82,11.82,0,0,0-2.35-8l.84.43-56.1.11.92-.47a12.91,12.91,0,0,0-2.16,4.78,11.85,11.85,0,0,0,.15,5.23,16.56,16.56,0,0,0,2.17,4.93,16.83,16.83,0,0,0,3.59,4.07l-1.17-.08c1.91-1.1,3.8-2.13,5.77-3a48.85,48.85,0,0,1,6.11-2.31,16.65,16.65,0,0,1,6.45-.78l.8.16c.26.06.51.18.76.26.51.2,1,.47,1.48.63a8.12,8.12,0,0,0,3.16.46,7.15,7.15,0,0,0,3-.86,6.4,6.4,0,0,1,3.14-.88,20.43,20.43,0,0,1,6.44,1.08,63.5,63.5,0,0,1,11.9,5.25l-1.11.08a18.37,18.37,0,0,0,4.15-5A14.78,14.78,0,0,0,911.06,230.55Z" transform="translate(-689.23 -146.73)"/><path class="cls-1" d="M858.48,242.52a2.41,2.41,0,0,1-.37.62,1.75,1.75,0,0,1-.29.26l-.15.1,0,0-.38.23-.75.47-1.47,1c-1,.66-1.94,1.35-2.88,2.06h0l-.11.08a.92.92,0,0,1-1.29-.19.81.81,0,0,1-.18-.51c0-1.14-.1-2.27-.13-3.4s0-2.24,0-3.36.08-2.23.17-3.34a8.64,8.64,0,0,0-.19-3.41h0a1,1,0,1,1,1.83-.55h0l.12.43a17.2,17.2,0,0,0,2.22,4.76,19.34,19.34,0,0,0,1.61,2.09c.29.33.6.64.92.94l.49.45.25.21.06.06,0,0,.15.15A1.42,1.42,0,0,1,858.48,242.52Zm-2-.14a.65.65,0,0,0,.1.6l.09.1,0,0-.07-.06-.28-.24-.55-.49c-.35-.34-.7-.69-1-1.06a21.19,21.19,0,0,1-1.79-2.33,19,19,0,0,1-2.47-5.32l1.95-.11h0a5.82,5.82,0,0,0-.94,3.16,29.73,29.73,0,0,0,0,3.27,23.94,23.94,0,0,0,1.11,6.41l-1.58-.62h0c1-.73,1.95-1.43,3-2.11l1.52-1,.77-.48.39-.24,0,0-.06,0a.38.38,0,0,0-.09.14A.52.52,0,0,0,856.48,242.38Z" transform="translate(-689.23 -146.73)"/><path class="cls-1" d="M911.09,254.21a16.13,16.13,0,0,1-.18,1.61,8.26,8.26,0,0,1-.51,1.7l-1,2.27c-.37.74-.73,1.48-1.11,2.21s-.81,1.45-1.24,2.16a45.67,45.67,0,0,1-6.15,7.88,47.94,47.94,0,0,1-16.87,11.15h0l-.11,0a2.79,2.79,0,0,1-1.76,0,45.92,45.92,0,0,1-17.76-10.46,43.92,43.92,0,0,1-11-16.78h0v0a1,1,0,0,1,1-1.36,35.38,35.38,0,0,0,14.35-1.39,36.06,36.06,0,0,0,12.61-7,1,1,0,0,1,1.31,0,33.11,33.11,0,0,0,12.87,7,31.86,31.86,0,0,0,7.26,1.15,30.29,30.29,0,0,0,3.69-.05c.61,0,1.23-.1,1.84-.18l.91-.13.23,0,.14,0,.31,0A2.48,2.48,0,0,1,911.09,254.21Zm-1.54,1.26a.43.43,0,0,0,.25.45h.07l-.09,0-.24,0-1,.13c-.65.08-1.3.15-2,.2A34.39,34.39,0,0,1,895,255.14a34.89,34.89,0,0,1-13.65-7.39h1.31a38.11,38.11,0,0,1-13.32,7.39,37.22,37.22,0,0,1-15.16,1.46l1-1.39h0a40.62,40.62,0,0,0,28.63,21.51l-1.87.06h0a42.1,42.1,0,0,0,22.5-14.46c.48-.61.93-1.24,1.39-1.85l1.29-1.93,1.19-2a1.07,1.07,0,0,1,.45-.49A5.69,5.69,0,0,0,909.55,255.47Z" transform="translate(-689.23 -146.73)"/><path class="cls-1" d="M913.86,244.09l-.31,3.13a.94.94,0,0,1-1.4.72l-.16-.09h0l-7-4.56,0,0a1,1,0,0,1-.29-1.37.85.85,0,0,1,.22-.24,17,17,0,0,0,4.2-5,14.9,14.9,0,0,0,2-6.12h0l0-.27a1,1,0,0,1,1.94.11c0,2.36.37,4.57.57,6.84A43.43,43.43,0,0,1,913.86,244.09Zm-1.72-.18a36.27,36.27,0,0,0,.45-6.59,15.13,15.13,0,0,0-1.5-6.44l2-.16h0a16.88,16.88,0,0,1-2.24,7,18.61,18.61,0,0,1-4.7,5.53l-.11-1.64,7.14,4.64h0l-1.56.63Z" transform="translate(-689.23 -146.73)"/><path class="cls-3" d="M913,222H850a4.07,4.07,0,0,1,1-8h62a4.26,4.26,0,0,1,4,3A4.4,4.4,0,0,1,913,222Z" transform="translate(-689.23 -146.73)"/><polygon class="cls-1" points="185.85 39.47 188.37 42.33 192.15 41.88 190.2 45.16 191.8 48.62 188.08 47.78 185.28 50.37 184.93 46.57 181.61 44.71 185.11 43.2 185.85 39.47"/><polygon class="cls-1" points="202.23 49.84 204.44 54.32 209.39 55.04 205.81 58.54 206.66 63.47 202.23 61.14 197.8 63.47 198.64 58.54 195.06 55.04 200.01 54.32 202.23 49.84"/><polygon class="cls-1" points="192.93 30.79 194.44 28.52 193.44 25.99 196.06 26.73 198.15 24.99 198.26 27.71 200.56 29.16 198.01 30.11 197.34 32.75 195.65 30.61 192.93 30.79"/><circle class="cls-1" cx="182.77" cy="84.27" r="3"/><circle class="cls-1" cx="203.77" cy="84.27" r="3"/></g><g id="blak"><polygon class="cls-4" points="32.67 62.04 33.62 60.62 32.99 59.03 34.63 59.5 35.94 58.41 36.01 60.11 37.45 61.02 35.85 61.61 35.43 63.27 34.38 61.92 32.67 62.04"/><path class="cls-5" d="M718.9,218.5a8.5,8.5,0,0,0,0-8l-10.48-12.29a1.92,1.92,0,1,1,2.38-3l20.1,9.27a10.3,10.3,0,0,1,4,2,10.43,10.43,0,0,1,3,4L759.41,261h-59Z" transform="translate(-689.23 -146.73)"/><path class="cls-6" d="M768.16,299.21a2.45,2.45,0,0,1-1.17,1.47l-.18.08-.07,0-.15.06-.6.26c-.4.17-.81.33-1.21.48-.81.31-1.64.58-2.47.83a36.34,36.34,0,0,1-5,1.09,34.81,34.81,0,0,1-28.51-8.76h1.3a38,38,0,0,1-18.55,9.15,39,39,0,0,1-20.87-2h0l-.19-.08a1.92,1.92,0,0,1-.47-3.29c1.33-1.08,2.69-2.13,4.06-3.14s2.77-2,4.19-2.92l-.49,1h0v-.14a1.13,1.13,0,0,1,.48-.85,105.51,105.51,0,0,1,14.94-8,25.08,25.08,0,0,1,8.2-2.32,8.09,8.09,0,0,1,2.19.2,10.24,10.24,0,0,1,1.06.37c.32.15.62.28.94.4a7.93,7.93,0,0,0,3.93.52,7.5,7.5,0,0,0,1.92-.53c.31-.13.58-.29.92-.45a6.53,6.53,0,0,1,1.07-.38,11.11,11.11,0,0,1,4.34.05,39.61,39.61,0,0,1,8.07,2.68c2.6,1.1,5.09,2.43,7.59,3.74s4.85,2.89,7.32,4.31a1,1,0,0,1,.51.82V294h0l-.53-1c1.26.88,2.59,1.83,3.86,2.89S767,298.12,768.16,299.21Zm-3.52-.42c-1-.56-1.92-1.08-2.8-1.67a26.88,26.88,0,0,1-2.58-2.07l-.15-.13a1.12,1.12,0,0,1-.37-.88h0l.52,1c-2.23-1.64-4.48-3.25-6.76-4.86a76.89,76.89,0,0,0-7.22-4.13,34.77,34.77,0,0,0-7.74-2.89,9.46,9.46,0,0,0-4-.15,5.63,5.63,0,0,0-.9.31c-.3.13-.63.33-1,.46a7.75,7.75,0,0,1-2.12.58,8.81,8.81,0,0,1-4.29-.58c-.34-.13-.68-.29-1-.43a8.37,8.37,0,0,0-.93-.3,7.29,7.29,0,0,0-2-.13,21.41,21.41,0,0,0-7.79,2.49,75,75,0,0,0-7.24,4.13,54.43,54.43,0,0,0-6.66,4.91l.49-1h0a1.09,1.09,0,0,1-.37.88l-.13.11c-1.24,1.07-2.44,2.18-3.58,3.35s-2.22,2.38-3.24,3.65l-.67-3.37h0A35.58,35.58,0,0,0,711,300.89a34.85,34.85,0,0,0,9.35-2.58,36.17,36.17,0,0,0,8.37-5.07h0a1,1,0,0,1,1.3,0h0a32.57,32.57,0,0,0,17.26,7.48,32,32,0,0,0,9.42-.33,31.16,31.16,0,0,0,4.56-1.18c.74-.25,1.48-.52,2.2-.83.35-.15.71-.3,1.07-.47l.52-.25.13-.07.07,0,0,0A1.32,1.32,0,0,0,764.64,298.79Z" transform="translate(-689.23 -146.73)"/><path class="cls-6" d="M760.46,277.73a16.87,16.87,0,0,1-2.2,7,17.63,17.63,0,0,1-4.74,5.5l0,0a1,1,0,0,1-1.08,0c-1.81-1.12-3.62-2.25-5.5-3.25a58.09,58.09,0,0,0-5.72-2.79,19,19,0,0,0-6.11-1.57,5.6,5.6,0,0,0-3.05.65,7.93,7.93,0,0,1-3.13.77,8.39,8.39,0,0,1-3.18-.51,11.11,11.11,0,0,0-3-1,13.54,13.54,0,0,0-6.14,1.46,58.29,58.29,0,0,0-5.61,3l-5.51,3.22h0a1,1,0,0,1-1.15-.09,19.67,19.67,0,0,1-6.57-10,13.9,13.9,0,0,1-.23-6.19,14.74,14.74,0,0,1,2.48-5.67,1.12,1.12,0,0,1,.92-.47L757,268a1,1,0,0,1,.84.43,15.05,15.05,0,0,1,2.17,4.4A13.16,13.16,0,0,1,760.46,277.73Zm-2-.17a11.94,11.94,0,0,0-2.35-8l.83.43-56.1.11.93-.47a12.6,12.6,0,0,0-2.16,4.78,11.71,11.71,0,0,0,.14,5.23,16.33,16.33,0,0,0,2.18,4.93,16.79,16.79,0,0,0,3.58,4.07l-1.16-.08a64.57,64.57,0,0,1,5.76-3,48.85,48.85,0,0,1,6.11-2.31,16.69,16.69,0,0,1,6.45-.78l.8.16c.26.06.51.18.77.26.5.2,1,.47,1.48.63a8.07,8.07,0,0,0,3.15.46,7.23,7.23,0,0,0,3-.86,6.47,6.47,0,0,1,3.13-.88,20.43,20.43,0,0,1,6.44,1.08,63.21,63.21,0,0,1,11.9,5.25l-1.11.08a18.37,18.37,0,0,0,4.15-5A14.8,14.8,0,0,0,758.47,277.56Z" transform="translate(-689.23 -146.73)"/><path class="cls-6" d="M705.88,289.52a1.85,1.85,0,0,1-.37.62,1.75,1.75,0,0,1-.29.26l-.14.1-.06,0-.38.23-.74.47-1.48,1c-1,.66-1.93,1.35-2.87,2.06h0l-.11.08a.93.93,0,0,1-1.3-.19,1,1,0,0,1-.18-.51c-.05-1.14-.1-2.27-.13-3.4s0-2.24,0-3.36.08-2.23.17-3.34a8.82,8.82,0,0,0-.18-3.41h0a1,1,0,1,1,1.82-.55h0l.13.43a17.17,17.17,0,0,0,2.21,4.76,19.34,19.34,0,0,0,1.61,2.09c.3.33.6.64.92.94l.49.45.25.21.06.06,0,0,.16.15A1.47,1.47,0,0,1,705.88,289.52Zm-2-.14a.68.68,0,0,0,.09.6l.09.1,0,0L704,290l-.28-.24-.54-.49c-.36-.34-.7-.69-1-1.06a20,20,0,0,1-1.79-2.33,19,19,0,0,1-2.48-5.32l1.95-.11h0a5.75,5.75,0,0,0-.95,3.16,29.73,29.73,0,0,0,0,3.27,23.56,23.56,0,0,0,1.12,6.41l-1.59-.62h0c1-.73,2-1.43,3-2.11l1.52-1,.77-.48.39-.24,0,0s0,0,0,.05a.39.39,0,0,0-.1.14A.48.48,0,0,0,703.89,289.38Z" transform="translate(-689.23 -146.73)"/><path class="cls-6" d="M758.5,301.21c0,.46-.08,1-.19,1.61a8.26,8.26,0,0,1-.5,1.7l-1,2.27c-.37.74-.72,1.48-1.11,2.22s-.81,1.44-1.24,2.15a45.67,45.67,0,0,1-6.15,7.88,47.8,47.8,0,0,1-16.87,11.15h0l-.11,0a2.82,2.82,0,0,1-1.77,0,45.92,45.92,0,0,1-17.76-10.46,43.9,43.9,0,0,1-11-16.78h0v0a1,1,0,0,1,.57-1.3,1,1,0,0,1,.47-.06,35.36,35.36,0,0,0,14.35-1.39,36.06,36.06,0,0,0,12.61-7,1,1,0,0,1,1.31,0,33.11,33.11,0,0,0,12.87,7,32,32,0,0,0,7.27,1.15,30.1,30.1,0,0,0,3.68-.05c.62,0,1.23-.1,1.84-.18l.91-.13.23,0,.15,0,.3,0A2.52,2.52,0,0,1,758.5,301.21ZM757,302.47a.44.44,0,0,0,.25.45h.07l-.09,0-.24,0-1,.13c-.65.08-1.29.15-2,.2a34,34,0,0,1-3.91.05,33.52,33.52,0,0,1-7.71-1.23,34.93,34.93,0,0,1-13.66-7.39h1.31a38.06,38.06,0,0,1-13.31,7.39,37.27,37.27,0,0,1-15.17,1.46l1-1.39h0a40.75,40.75,0,0,0,12,14.24,40.33,40.33,0,0,0,16.6,7.27l-1.87.06h0a42.32,42.32,0,0,0,16-8,41.8,41.8,0,0,0,6.48-6.48c.48-.61.93-1.24,1.4-1.85l1.29-1.93,1.18-2a1.13,1.13,0,0,1,.45-.49A5.13,5.13,0,0,0,757,302.47Z" transform="translate(-689.23 -146.73)"/><path class="cls-6" d="M761.26,291.09l-.3,3.13a1,1,0,0,1-1,.84.94.94,0,0,1-.38-.12l-.16-.09h0l-7-4.56,0,0a1,1,0,0,1-.29-1.37.85.85,0,0,1,.22-.24,16.87,16.87,0,0,0,4.2-5,14.92,14.92,0,0,0,2-6.12h0l0-.27a1,1,0,0,1,1.93.11c0,2.37.37,4.57.57,6.84A42.26,42.26,0,0,1,761.26,291.09Zm-1.72-.17a36.44,36.44,0,0,0,.45-6.6,15.16,15.16,0,0,0-1.5-6.44l2-.16h0a16.88,16.88,0,0,1-2.24,7,18.61,18.61,0,0,1-4.7,5.53l-.11-1.64,7.14,4.64-1.56.63Z" transform="translate(-689.23 -146.73)"/><path class="cls-5" d="M760.4,269h-63a4.07,4.07,0,0,1,1-8h62a4.26,4.26,0,0,1,4,3A4.4,4.4,0,0,1,760.4,269Z" transform="translate(-689.23 -146.73)"/><polygon class="cls-4" points="33.26 86.47 35.77 89.33 39.55 88.89 37.61 92.16 39.2 95.62 35.48 94.78 32.68 97.37 32.33 93.57 29.01 91.71 32.51 90.2 33.26 86.47"/><polygon class="cls-4" points="49.63 96.84 51.84 101.32 56.8 102.04 53.21 105.54 54.06 110.47 49.63 108.14 45.2 110.47 46.05 105.54 42.46 102.04 47.41 101.32 49.63 96.84"/><polygon class="cls-4" points="40.34 77.79 41.85 75.52 40.84 72.99 43.46 73.73 45.55 71.99 45.66 74.71 47.97 76.16 45.41 77.11 44.74 79.75 43.05 77.61 40.34 77.79"/><circle class="cls-7" cx="30.18" cy="131.27" r="3"/><circle class="cls-7" cx="51.18" cy="131.27" r="3"/></g></svg>